<?xml version="1.0" standalone="no"?><!DOCTYPE svg PUBLIC "-//W3C//DTD SVG 1.1//EN" "http://www.w3.org/Graphics/SVG/1.1/DTD/svg11.dtd"><svg t="1766023478060" class="icon" viewBox="0 0 1391 1024" version="1.1" xmlns="http://www.w3.org/2000/svg" p-id="67626" xmlns:xlink="http://www.w3.org/1999/xlink" width="86.9375" height="64"><path d="M530.285714 917.942857c-10.971429 58.514286-65.828571 106.057143-113.371428 106.057143H76.8c-51.2 0-84.114286-47.542857-73.142857-106.057143L171.885714 106.057143C182.857143 47.542857 237.714286 0 288.914286 0h336.457143c51.2 0 84.114286 47.542857 73.142857 106.057143l-168.228572 811.885714z" fill="#D7000F" p-id="67627"></path><path d="M881.371429 917.942857c-14.628571 58.514286-65.828571 106.057143-113.371429 106.057143H394.971429c-51.2 0-80.457143-47.542857-69.485715-106.057143l164.571429-811.885714c10.971429-58.514286 62.171429-106.057143 113.371428-106.057143h373.028572c51.2 0 80.457143 47.542857 69.485714 106.057143l-164.571428 811.885714z" fill="#004097" p-id="67628"></path><path d="M1217.828571 917.942857c-10.971429 58.514286-62.171429 106.057143-117.028571 106.057143h-336.457143c-51.2 0-84.114286-47.542857-73.142857-106.057143l168.228571-811.885714c14.628571-58.514286 69.485714-106.057143 117.028572-106.057143H1316.571429c51.2 0 84.114286 47.542857 73.142857 106.057143l-171.885715 811.885714z" fill="#00959D" p-id="67629"></path><path d="M980.114286 749.714286l-3.657143 10.971428h-36.571429l3.657143-10.971428h-84.114286l7.314286-21.942857 10.971429-3.657143 51.2-164.571429h40.228571l-7.314286 14.628572s25.6-14.628571 36.571429-14.628572h91.428571v14.628572c0 3.657143 3.657143 7.314286 7.314286 7.314285h10.971429l-10.971429 21.942857h-32.914286c-10.971429 0-14.628571-3.657143-14.628571-14.628571v-10.971429l-25.6 10.971429-40.228571 135.314286h14.628571l-3.657143 10.971428h7.314286c3.657143 0 7.314286-3.657143 14.628571-7.314285l32.914286-43.885715h-40.228571l7.314285-25.6H1060.571429l7.314285-21.942857H1024l7.314286-25.6h128l-7.314286 25.6h-40.228571l-14.628572 21.942857h40.228572l-7.314286 25.6h-43.885714l-3.657143 10.971429h14.628571l3.657143 32.914286c0 3.657143 3.657143 3.657143 7.314286 3.657142h7.314285l-7.314285 25.6h-21.942857c-14.628571 0-18.285714-3.657143-18.285715-10.971428l-7.314285-25.6-21.942858 29.257143c-3.657143 7.314286-10.971429 10.971429-21.942857 10.971428h-40.228571l3.657143-10.971428zM230.4 303.542857l-32.914286 149.942857c-3.657143 18.285714 21.942857 29.257143 40.228572 21.942857 18.285714-3.657143 25.6-21.942857 25.6-21.942857l40.228571-149.942857h43.885714l-43.885714 157.257143c-10.971429 32.914286-47.542857 40.228571-95.085714 40.228571-76.8 0-62.171429-54.857143-62.171429-54.857142l29.257143-142.628572h54.857143z m259.657143 109.714286h43.885714l-21.942857 91.428571h-43.885714l21.942857-91.428571z m51.2-25.6c-3.657143 7.314286-18.285714 14.628571-29.257143 14.628571-14.628571 0-21.942857-7.314286-18.285714-18.285714 3.657143-10.971429 14.628571-18.285714 29.257143-18.285714 10.971429 3.657143 21.942857 10.971429 18.285714 21.942857zM987.428571 299.885714c32.914286 7.314286 47.542857 36.571429 18.285715 87.771429-32.914286 54.857143-113.371429 43.885714-113.371429 43.885714l-14.628571 73.142857h-54.857143L870.4 292.571429c0 3.657143 84.114286 0 117.028571 7.314285z m-25.6 62.171429C980.114286 318.171429 914.285714 329.142857 914.285714 329.142857l-14.628571 69.485714c36.571429 0 51.2-3.657143 62.171428-36.571428z m109.714286 84.114286c7.314286-18.285714 0-32.914286-10.971428-32.914286s-21.942857 14.628571-29.257143 32.914286c-3.657143 18.285714 0 32.914286 10.971428 32.914285 14.628571 3.657143 25.6-10.971429 29.257143-32.914285z m-80.457143 7.314285c10.971429-69.485714 76.8-76.8 91.428572-58.514285l47.542857-7.314286-25.6 117.028571h-47.542857c-3.657143 0-7.314286-3.657143-7.314286-3.657143-7.314286 3.657143-69.485714 25.6-58.514286-47.542857z m160.914286-65.828571l47.542857-7.314286 3.657143 65.828572 29.257143-62.171429 47.542857-7.314286s-117.028571 204.8-124.342857 212.114286c-3.657143 7.314286-7.314286 10.971429-14.628572 10.971429h-36.571428l3.657143-25.6h10.971428l43.885715-69.485715-10.971429-117.028571z m-574.171429 256l7.314286-25.6h113.371429l-7.314286 25.6h-47.542857l-7.314286 25.6h43.885714l-7.314285 25.6h-43.885715l-10.971428 36.571428c-3.657143 7.314286 3.657143 7.314286 10.971428 7.314286h21.942858l-7.314286 21.942857h-51.2c-14.628571 0-18.285714-7.314286-14.628572-21.942857l14.628572-47.542857h-29.257143l7.314286-25.6h29.257143l7.314285-25.6-29.257143 3.657143z m7.314286-36.571429l7.314286-18.285714h10.971428c7.314286 0 10.971429-7.314286 10.971429-10.971429l10.971429-21.942857h43.885714l-10.971429 18.285715h47.542857l-7.314285 25.6h-62.171429c-7.314286 10.971429-18.285714 10.971429-29.257143 10.971428l-21.942857-3.657143z m142.628572-47.542857h36.571428l-3.657143 14.628572s21.942857-14.628571 47.542857-14.628572h62.171429l-29.257143 91.428572c-3.657143 10.971429-10.971429 14.628571-29.257143 14.628571h-76.8l-18.285714 62.171429c0 3.657143 0 7.314286 3.657143 7.314285h21.942857l-7.314286 21.942857h-43.885714c-14.628571 0-18.285714-10.971429-14.628571-18.285714l51.2-179.2z m10.971428 84.114286h58.514286c3.657143 0 7.314286-3.657143 7.314286-7.314286l3.657142-10.971428h-62.171428l-7.314286 18.285714z m10.971429 98.742857l7.314285-69.485714h36.571429v14.628571h10.971429c3.657143 0 7.314286-3.657143 7.314285-7.314286l3.657143-10.971428h29.257143l-3.657143 14.628571c-3.657143 10.971429-14.628571 18.285714-25.6 18.285715h-18.285714v25.6c0 3.657143 3.657143 7.314286 10.971428 7.314285h18.285715l-7.314286 18.285715h-40.228571c-25.6 3.657143-32.914286 0-29.257143-10.971429z m25.6-138.971429h36.571428l7.314286-18.285714h-62.171429l-7.314285 25.6c-3.657143 0 14.628571-7.314286 25.6-7.314286z m138.971428 120.685715h32.914286l7.314286-29.257143h-32.914286l-7.314286 29.257143z m54.857143-84.114286h-32.914286l-7.314285 29.257143h32.914285l7.314286-29.257143z m18.285714-51.2h-32.914285l-7.314286 29.257143h32.914286l7.314285-29.257143z m-303.542857-138.971429c-10.971429 32.914286-32.914286 58.514286-76.8 58.514286-29.257143 0-51.2-18.285714-40.228571-62.171428 7.314286-36.571429 36.571429-62.171429 69.485714-62.171429 40.228571-3.657143 62.171429 18.285714 47.542857 65.828571z m-47.542857-43.885714c-10.971429 0-21.942857 18.285714-25.6 36.571429-3.657143 18.285714-3.657143 36.571429 10.971429 36.571428 10.971429 0 21.942857-14.628571 25.6-36.571428 3.657143-18.285714 0-36.571429-10.971429-36.571429z m-186.514286-21.942857c18.285714-3.657143 36.571429 3.657143 32.914286 29.257143l-18.285714 87.771428h-43.885714l10.971428-62.171428c7.314286-32.914286-7.314286-32.914286-18.285714-21.942857l-21.942857 84.114285H351.085714l21.942857-113.371428 47.542858-10.971429-3.657143 18.285715c10.971429 0 21.942857-7.314286 32.914285-10.971429z m347.428572 0c18.285714-3.657143 36.571429 3.657143 32.914286 29.257143l-18.285715 87.771428H768l10.971429-62.171428c7.314286-32.914286-7.314286-32.914286-18.285715-21.942857l-21.942857 84.114285h-40.228571l21.942857-113.371428 47.542857-10.971429-3.657143 18.285715c7.314286 0 21.942857-7.314286 32.914286-10.971429z" fill="#FFFFFF" p-id="67630"></path></svg>