<?xml version="1.0" standalone="no"?><!DOCTYPE svg PUBLIC "-//W3C//DTD SVG 1.1//EN" "http://www.w3.org/Graphics/SVG/1.1/DTD/svg11.dtd"><svg t="1766024600433" class="icon" viewBox="0 0 1024 1024" version="1.1" xmlns="http://www.w3.org/2000/svg" p-id="78668" xmlns:xlink="http://www.w3.org/1999/xlink" width="64" height="64"><path d="M208.6 351.8l372.1-232.5c28.4-17.7 65.7-9.1 83.5 19.2l133.5 213.3H208.6z" fill="#FAB001" p-id="78669"></path><path d="M749.5 351.8l-133.3-213c-6.9-11-16.7-18.9-27.7-23.6-2.7 1.2-5.3 2.5-7.8 4.1L208.6 351.8h540.9z" fill="#F9E48A" p-id="78670"></path><path d="M749.2 351.8L633.6 167.1c-0.1-0.1-0.1-0.2-0.2-0.3-10.3-16.2-32.1-20.5-48.5-10.4-73.3 45.4-313.8 195.5-313.8 195.5h478.1z" fill="#FECE0A" p-id="78671"></path><path d="M939.9 268.8H81.8c-5.4 0-9.9 4.4-9.9 9.9V902c0 5.4 4.4 9.9 9.9 9.9h858.1c5.4 0 9.9-4.4 9.9-9.9V278.7c0-5.5-4.4-9.9-9.9-9.9z" fill="#FE6A19" p-id="78672"></path><path d="M170.4 268.8c-54.3 0-98.4 44.1-98.4 98.4v446.2c0 12.8 2.5 25.1 7 36.3 7.7 2 15.8 3.1 24.2 3.1h681c54.3 0 98.4-44.1 98.4-98.4V308.2c0-12.8-2.5-25.1-7-36.3-7.7-2-15.8-3.1-24.2-3.1h-681z" fill="#FF9843" p-id="78673"></path><path d="M784.2 852.9c54.3 0 98.4-44.1 98.4-98.4V324H222c-54.3 0-98.4 44.1-98.4 98.4v430.5h660.6z" fill="#FC8308" p-id="78674"></path><path d="M712.6 508.3c-37.1 0-67.2 30.1-67.2 67.2s30.1 67.2 67.2 67.2h170V508.3h-170z m6.2 106.7c-21.8 0-39.4-17.6-39.4-39.4s17.6-39.4 39.4-39.4c21.8 0 39.4 17.6 39.4 39.4S740.5 615 718.8 615z" fill="#FFFFFF" p-id="78675"></path></svg>