<?xml version="1.0" standalone="no"?><!DOCTYPE svg PUBLIC "-//W3C//DTD SVG 1.1//EN" "http://www.w3.org/Graphics/SVG/1.1/DTD/svg11.dtd"><svg t="1766021502834" class="icon" viewBox="0 0 1024 1024" version="1.1" xmlns="http://www.w3.org/2000/svg" p-id="39544" xmlns:xlink="http://www.w3.org/1999/xlink" width="64" height="64"><path d="M784.8 487.1c-17.2-4-34.9-6.1-52.6-6.1-125.8 0-227.8 101.4-227.8 226.5 0 14.2 1.3 28.3 4 42.2C528.2 854.7 620.9 934 732.2 934 858 934 960 832.6 960 707.5c0-107.1-74.8-196.8-175.2-220.4zM609.3 708.2c26.8-14.7 49.6-33.8 67.9-52.2 31.8-32 50-61.9 50.9-63.5 12.2 27.9 74.2 91.3 113.3 113.6-72.4 48.2-112.1 113.6-112.1 113.6s-19.6-23.5-45-49.5l0.1-0.1c-23.8-24.1-52.5-50.4-75.1-61.9z" fill="#F29F4F" p-id="39545"></path><path d="M237.9 326.7c47.5 9.8 102.2 15.4 160.4 15.4 182.8 0 330.9-55.1 330.9-123 0-4.3-0.6-8.5-1.7-12.6C710.4 144.4 569.5 96 398.3 96c-182.8 0-331 55.1-331 123 0 0.9 0 1.9 0.1 2.8 4.5 68.8 120.4 94.4 170.5 104.9zM655.7 347c-39.8 18.2-93.3 32.2-154.8 39.7-34 4.2-68.3 6-102.6 6-79.1 0-151.8-10.3-208.7-27.6C168 360 100.5 325.1 88 312c-11.6-12.2-20.7-24.6-20.7-42.3v125.4c0.7 1 1.4 1.9 2.1 2.9 0.2 0.3 0.4 0.6 0.7 0.9 0.8 1 1.5 1.9 2.3 2.9 42 49.8 164.2 94.5 325.8 94.5 168.7 0 294.6-48.7 330.9-101.1V269.7c0.1 29.3-27.5 56.2-73.4 77.3zM398.3 700.8c-77.3 0-148-9.4-207.5-25.9-0.6-0.2-1.2-0.3-1.8-0.5-1.2-0.3-2.3-0.7-3.4-1-0.8-0.2-1.6-0.5-2.5-0.7l-3-0.9c-1-0.3-2.1-0.6-3.1-1-0.8-0.2-1.6-0.5-2.4-0.7-1.8-0.6-3.5-1.1-5.3-1.7-0.7-0.2-1.4-0.4-2-0.7-1.2-0.4-2.3-0.8-3.5-1.2-0.7-0.3-1.5-0.5-2.2-0.8-1.1-0.4-2.2-0.7-3.3-1.1-0.7-0.3-1.5-0.5-2.2-0.8-1.1-0.4-2.3-0.8-3.4-1.2-0.6-0.2-1.3-0.5-2-0.7-1.7-0.6-3.3-1.2-4.9-1.8l-2.4-0.9c-0.9-0.3-1.8-0.7-2.7-1-0.9-0.4-1.8-0.7-2.7-1.1-0.7-0.3-1.4-0.6-2.2-0.9l-3-1.2c-0.5-0.2-1.1-0.4-1.6-0.7-24.5-10.3-45.9-22.1-63.9-35.1v67.4c0 17 9.3 33.1 26 47.9 50.2 44.1 167.8 75.1 304.9 75.1 22.9 0 45.3-0.8 66.9-2.5-14.3-39.9-20.1-75.8-20.5-107.6-15.2 0.9-30.6 1.3-46.3 1.3z m87.8-158.2c-20.9 2.1-42.4 3.4-64.6 4-1.2 0-2.5 0-3.7 0.1-2.5 0.1-5 0.1-7.5 0.1-4 0-8 0.1-12 0.1-142.3 0-262.3-31.7-330.9-81.5V549c0.5 0.8 1.1 1.5 1.7 2.3 0.2 0.2 0.3 0.4 0.5 0.7 0.4 0.6 0.9 1.1 1.3 1.7 0.2 0.3 0.4 0.5 0.6 0.8 0.4 0.5 0.9 1 1.3 1.6 0.2 0.3 0.4 0.5 0.7 0.8 0.5 0.5 0.9 1 1.4 1.6 0.2 0.2 0.4 0.5 0.7 0.7 0.5 0.6 1 1.1 1.6 1.7l0.6 0.6 2.1 2.1 0.2 0.2c0.8 0.8 1.6 1.6 2.5 2.3l0.3 0.3c0.7 0.7 1.4 1.3 2.2 2 0.3 0.2 0.5 0.5 0.8 0.7l1.8 1.5c0.3 0.3 0.7 0.5 1 0.8 0.6 0.5 1.1 0.9 1.7 1.4 0.4 0.3 0.7 0.6 1.1 0.9 0.6 0.5 1.2 0.9 1.8 1.4 0.4 0.3 0.8 0.6 1.1 0.9 0.6 0.5 1.2 0.9 1.8 1.4 0.4 0.3 0.8 0.6 1.1 0.8 0.7 0.5 1.5 1 2.2 1.6 0.7 0.5 1.3 0.9 2 1.4l1.8 1.2 1.8 1.2c0.5 0.3 1 0.6 1.4 0.9 0.6 0.4 1.3 0.8 1.9 1.2 0.4 0.3 0.9 0.6 1.3 0.8 0.7 0.4 1.4 0.9 2.1 1.3 0.4 0.2 0.8 0.5 1.2 0.7 0.8 0.5 1.6 0.9 2.4 1.4 0.3 0.2 0.6 0.3 0.9 0.5 46.3 26.6 117.1 48.1 204 56.3h0.3c1.7 0.2 3.5 0.3 5.2 0.5 0.6 0.1 1.2 0.1 1.8 0.2 1.5 0.1 2.9 0.2 4.4 0.4 0.4 0 0.8 0.1 1.2 0.1 20.9 1.6 42.7 2.5 65.2 2.5 17.4 0 34.4-0.5 50.9-1.5 9.5-49.5 31.8-85.3 49.7-107.2-4.3 0.5-8.6 0.9-12.9 1.4-0.1-0.4-0.1-0.4 0-0.5z" fill="#FE4C4E" p-id="39546"></path></svg>