<svg t="1762480597867" class="icon" viewBox="0 0 1024 1024" version="1.1" xmlns="http://www.w3.org/2000/svg" p-id="5444" width="200" height="200"><path d="M962.432 304c7.552 15.19104 3.75808 34.08896-11.392 41.68704l-98.47296 56.832L822.272 349.44l94.72-56.79104c7.552-3.79392 15.104-3.79392 22.70208-3.79392 11.34592 3.79392 18.944 7.552 22.73792 15.14496z m-901.504 0c3.84-7.59296 11.392-11.35104 18.944-15.14496 7.59808-3.79904 15.19104 0 22.74304 3.79392l94.72 56.79104-30.29504 53.07904-94.72-56.832c-15.14496-7.59808-18.944-26.496-11.392-41.68704z" fill="#d9001b" opacity=".4" p-id="5445"></path><path d="M250.368 114.64704c7.552-3.79904 15.104-3.79904 22.70208-3.79904 7.54688 3.79904 15.14496 7.552 18.944 15.14496l56.78592 94.72-52.992 30.29504-56.87296-94.76096c-7.552-15.15008-3.79904-34.09408 11.392-41.64608l0.04096 0.04608z" fill="#d9001b" opacity=".6" p-id="5446"></path><path d="M511.70304 42.66496c18.89792 0 34.08896 15.15008 34.08896 30.29504V182.784H481.36704V72.96c-3.79904-15.14496 11.392-30.29504 30.336-30.29504z" fill="#d9001b" p-id="5447"></path><path d="M769.23904 114.64704c15.14496 7.552 18.944 26.44992 11.34592 41.64096l-56.78592 94.72-53.03808-30.29504 56.79104-94.72c7.59296-7.59296 11.392-11.34592 18.944-15.14496 7.59296 0 18.944 0 22.74304 3.79904z" fill="#d9001b" opacity=".6" p-id="5448"></path><path d="M825.51296 950.10304c0.64-219.88352 0.64-396.37504 0.00512-396.46208h0.04096c-13.824-158.03392-148.27008-283.72992-313.17504-283.72992-174.24896 0-314.40896 140.16-314.40896 310.56896v369.62304h309.7856l-108.95872-136.2944s-5.4784-51.26144 43.8528-30.5408c28.50816 13.08672 38.3744 40.35584 38.3744 40.35584l1.09568-211.58912s29.60384-44.71296 55.91552 0l1.09568 133.06368s31.7952-43.62752 70.16448 3.27168c0 0 28.50816-47.98976 67.97824 2.18112 0 0 28.50304-55.62368 55.9104 5.4528v167.9616s-1.98144 11.83744-21.04832 26.1376h113.37216z m-234.84928-262.8096v-49.08032c23.02464-21.8112 38.3744-52.352 38.3744-85.07392 0-63.2576-51.52768-114.51392-116.21376-114.51392S396.61056 489.8816 396.61056 553.1392c0 33.81248 15.34976 64.35328 39.47008 85.07392v46.8992c-47.14496-26.17856-78.94016-75.25888-78.94016-131.97312C357.14048 468.0704 426.20928 399.36 512.82432 399.36c85.51424 0 156.77952 68.7104 155.68384 155.96544 0 56.70912-30.69952 105.78944-77.84448 131.968z" fill="#d9001b" opacity=".9" p-id="5449"></path></svg>