<svg t="1767951216404" class="icon" viewBox="0 0 1024 1024" version="1.1" xmlns="http://www.w3.org/2000/svg" p-id="5667" width="200" height="200"><path d="M506.058574 956.772174l-11.219478 0.400696h-0.356174c-49.463652 2.626783-87.084522 16.161391-87.084522 32.500869 0 18.209391 46.83687 32.946087 104.581565 32.946087s104.581565-14.736696 104.581565-32.946087c0-16.294957-37.531826-29.829565-86.772869-32.500869l-5.075478-0.534261z m0 0" fill="#20b566" p-id="5668"></path><path d="M511.935443 0.667826a390.544696 390.544696 0 0 0-400.695652 379.503304 381.417739 381.417739 0 0 0 266.418087 357.286957l117.225739 102.711652v149.860174H529.744139V840.125217l122.924522-103.023304A377.989565 377.989565 0 0 0 511.935443 0.667826z m20.079305 203.241739H690.0224v136.904348h-110.85913v80.717913a13.089391 13.089391 0 0 0 13.84626 14.202435h47.727305a16.829217 16.829217 0 0 0 17.808695-10.685218 188.861217 188.861217 0 0 0 5.431653-38.778434l41.405217 13.089391a150.839652 150.839652 0 0 1-15.449043 62.330435q-9.260522 14.202435-42.340174 14.202435H573.375443a33.257739 33.257739 0 0 1-37.665391-37.531827V301.857391h111.705044V242.465391H531.970226z m171.942956 337.118609h-84.057043a699.392 699.392 0 0 1-192.823652-15.449044 133.565217 133.565217 0 0 1-50.220522-37.576347 371.400348 371.400348 0 0 1-20.48 60.594087l-33.435826-28.093218a441.254957 441.254957 0 0 0 31.165217-148.74713l38.912 4.452174a596.591304 596.591304 0 0 1-6.277565 68.029217 148.48 148.48 0 0 0 32.634435 33.213217V352.033391H337.810922v-37.175652H409.535443V266.907826H344.978922v-35.617391H409.535443v-50.309565h42.651827v50.309565h64.02226v35.617391H452.231791v47.949913h67.762087v37.175652H461.447791v44.521739h54.361044v37.175653H461.447791v61.70713a940.744348 940.744348 0 0 0 148.880696 7.835826q71.234783-0.75687 101.286956-2.760348z m0 0" fill="#20b566" p-id="5669"></path></svg>