<svg t="1767951281598" class="icon" viewBox="0 0 1024 1024" version="1.1" xmlns="http://www.w3.org/2000/svg" p-id="7781" width="200" height="200"><path d="M530.940587 268.458667a40.220444 40.220444 0 0 1-3.584 6.542222A226.531556 226.531556 0 0 0 585.724587 341.902222a242.688 242.688 0 0 0 66.389333-73.443555z m0 0" fill="#d81e06" p-id="7782" data-spm-anchor-id="a313x.search_index.0.i5.7cdd3a81rkNpjV" class="selected"></path><path d="M505.966364 956.757333l-11.377777 0.398223h-0.341334c-49.152 2.616889-86.584889 16.156444-86.584889 32.540444 0 18.204444 46.535111 32.995556 103.936 32.995556s103.936-14.734222 103.936-32.995556c0-16.270222-37.319111-29.809778-86.243555-32.483556l-5.006222-0.512z m0 0" fill="#d81e06" p-id="7783" data-spm-anchor-id="a313x.search_index.0.i6.7cdd3a81rkNpjV" class="selected"></path><path d="M511.769031 0.625778a389.233778 389.233778 0 0 0-398.222222 379.505778 381.155556 381.155556 0 0 0 264.760889 357.262222l116.508444 102.684444v149.845334h34.645334v-149.902223l122.197333-103.025777A378.197333 378.197333 0 0 0 511.769031 0.568889zM392.302364 198.656l47.160889 13.482667q-28.728889 57.287111-53.589333 99.612444l26.453333-1.080889q11.377778-21.162667 23.779556-46.705778l43.235555 17.066667q-34.929778 62.577778-73.614222 125.895111 27.192889-3.299556 57.856-7.281778a335.985778 335.985778 0 0 0-4.608 43.804445 687.900444 687.900444 0 0 0-103.082666 13.084444l-13.084445-41.130666a305.095111 305.095111 0 0 0 46.364445-63.488q-21.105778 1.479111-41.016889 3.299555l-13.027556-40.163555a482.304 482.304 0 0 0 56.888889-116.451556z m75.491556 321.934222q-72.874667 11.377778-124.131556 20.764445l-7.68-51.2q74.752-10.581333 133.290667-20.081778-1.877333 30.549333-1.479111 50.289778z m204.8 37.205334q-97.336889-19.683556-191.601778-36.522667l12.629334-44.487111q102.4 16.725333 190.805333 33.507555zM519.676587 450.787556l11.889777-39.822223q87.779556 14.620444 134.485334 23.381334l-11.377778 42.325333q-65.536-13.482667-135.281778-25.884444z m181.248-27.704889a432.696889 432.696889 0 0 1-110.364445-43.463111 455.907556 455.907556 0 0 1-106.154666 44.487111 378.766222 378.766222 0 0 0-23.381334-43.406223 463.132444 463.132444 0 0 0 90.396445-30.663111 277.674667 277.674667 0 0 1-31.061334-35.043555q-13.425778 17.066667-27.591111 32.824889-15.36-15.701333-32.995555-31.004445a386.844444 386.844444 0 0 0 77.425777-118.954666l48.696889 8.419555q-6.542222 13.482667-13.027555 26.282667h122.311111v39.082666a287.004444 287.004444 0 0 1-63.601778 78.848c25.543111 11.377778 55.182222-2.446222 88.917333 3.640889-6.428444 14.449778-12.913778 52.224-19.569777 69.006223z m0 0" fill="#d81e06" p-id="7784" data-spm-anchor-id="a313x.search_index.0.i4.7cdd3a81rkNpjV" class="selected"></path></svg>