<?xml version="1.0" encoding="utf-8"?>
<svg version="1.1" xmlns:xlink="http://www.w3.org/1999/xlink" width="21px" height="21px" xmlns="http://www.w3.org/2000/svg">
  <g transform="matrix(1 0 0 1 -950 -393 )">
    <path d="M 3.8181818181818183 15.272727272727273  L 5.727272727272727 15.272727272727273  L 5.727272727272727 17.18181818181818  L 3.8181818181818183 17.18181818181818  L 3.8181818181818183 15.272727272727273  Z M 3.8181818181818183 3.818181818181817  L 5.727272727272727 3.818181818181817  L 5.727272727272727 5.727272727272727  L 3.8181818181818183 5.727272727272727  L 3.8181818181818183 3.818181818181817  Z M 15.272727272727273 3.818181818181817  L 17.181818181818183 3.818181818181817  L 17.181818181818183 5.727272727272727  L 15.272727272727273 5.727272727272727  L 15.272727272727273 3.818181818181817  Z M 1.9090909090909092 13.363636363636363  L 1.9090909090909092 19.07599431818182  L 7.636363636363637 19.07599431818182  L 7.636363636363637 13.363636363636363  L 1.9090909090909092 13.363636363636363  Z M 1.9090909090909092 1.9090909090909096  L 1.9090909090909092 7.636363636363637  L 7.636363636363637 7.636363636363637  L 7.636363636363637 1.9090909090909096  L 1.9090909090909092 1.9090909090909096  Z M 13.363636363636363 1.9090909090909096  L 13.363636363636363 7.636363636363637  L 19.09090909090909 7.636363636363637  L 19.09090909090909 1.9090909090909096  L 13.363636363636363 1.9090909090909096  Z M 0 11.454545454545453  L 9.545454545454545 11.454545454545453  L 9.545454545454545 21  L 0 21  L 0 11.454545454545453  Z M 15.272727272727273 19.09090909090909  L 17.181818181818183 19.09090909090909  L 17.181818181818183 21  L 15.272727272727273 21  L 15.272727272727273 19.09090909090909  Z M 19.09090909090909 19.09090909090909  L 21 19.09090909090909  L 21 21  L 19.09090909090909 21  L 19.09090909090909 19.09090909090909  Z M 19.09090909090909 11.454545454545453  L 21 11.454545454545453  L 21 17.18181818181818  L 15.272727272727273 17.18181818181818  L 15.272727272727273 15.272727272727273  L 13.363636363636363 15.272727272727273  L 13.363636363636363 21  L 11.454545454545453 21  L 11.454545454545453 11.454545454545453  L 17.181818181818183 11.454545454545453  L 17.181818181818183 13.363636363636363  L 19.09090909090909 13.363636363636363  L 19.09090909090909 11.454545454545453  Z M 0 0  L 9.545454545454545 0  L 9.545454545454545 9.545454545454547  L 0 9.545454545454547  L 0 0  Z M 11.454545454545453 0  L 21 0  L 21 9.545454545454547  L 11.454545454545453 9.545454545454547  L 11.454545454545453 0  Z " fill-rule="nonzero" fill="#7f7f7f" stroke="none" transform="matrix(1 0 0 1 950 393 )" />
  </g>
</svg>